<mxfile host="65bd71144e">
    <diagram id="Ne-7b7eiB4k2Ckv6T7Qk" name="PÃ¡gina-1">
        <mxGraphModel dx="467" dy="322" grid="1" gridSize="10" guides="1" tooltips="1" connect="1" arrows="1" fold="1" page="1" pageScale="1" pageWidth="827" pageHeight="1169" math="0" shadow="0">
            <root>
                <mxCell id="0"/>
                <mxCell id="1" parent="0"/>
                <mxCell id="em6YGDrc_pUf2AP9gyRK-1" value="" style="rounded=0;whiteSpace=wrap;html=1;" parent="1" vertex="1">
                    <mxGeometry x="120" y="150" width="650" height="380" as="geometry"/>
                </mxCell>
                <mxCell id="em6YGDrc_pUf2AP9gyRK-2" value="" style="rounded=0;whiteSpace=wrap;html=1;" parent="1" vertex="1">
                    <mxGeometry x="120" y="150" width="650" height="60" as="geometry"/>
                </mxCell>
                <mxCell id="em6YGDrc_pUf2AP9gyRK-3" value="=" style="rounded=1;fillColor=#dae8fc;strokeColor=#6c8ebf;html=1;align=center;verticalAlign=middle;fontStyle=0;fontSize=12;sketch=0;" parent="1" vertex="1">
                    <mxGeometry x="130" y="163.5" width="40" height="33" as="geometry"/>
                </mxCell>
                <mxCell id="em6YGDrc_pUf2AP9gyRK-4" value="" style="rounded=0;whiteSpace=wrap;html=1;" parent="1" vertex="1">
                    <mxGeometry x="120" y="210" width="180" height="320" as="geometry"/>
                </mxCell>
                <mxCell id="em6YGDrc_pUf2AP9gyRK-6" value="Users" style="text;html=1;strokeColor=none;fillColor=none;align=center;verticalAlign=middle;whiteSpace=wrap;rounded=0;" parent="1" vertex="1">
                    <mxGeometry x="173" y="228" width="60" height="30" as="geometry"/>
                </mxCell>
                <mxCell id="em6YGDrc_pUf2AP9gyRK-7" value="" style="sketch=0;outlineConnect=0;fontColor=#232F3E;gradientColor=none;fillColor=#232F3D;strokeColor=none;dashed=0;verticalLabelPosition=bottom;verticalAlign=top;align=center;html=1;fontSize=12;fontStyle=0;aspect=fixed;pointerEvents=1;shape=mxgraph.aws4.user;" parent="1" vertex="1">
                    <mxGeometry x="139" y="230" width="18" height="18" as="geometry"/>
                </mxCell>
                <mxCell id="em6YGDrc_pUf2AP9gyRK-8" value="" style="line;strokeWidth=1;fillColor=none;align=left;verticalAlign=middle;spacingTop=-1;spacingLeft=3;spacingRight=3;rotatable=0;labelPosition=right;points=[];portConstraint=eastwest;" parent="1" vertex="1">
                    <mxGeometry x="136.5" y="258" width="147" height="8" as="geometry"/>
                </mxCell>
                <mxCell id="em6YGDrc_pUf2AP9gyRK-10" value="Categories" style="text;html=1;strokeColor=none;fillColor=none;align=center;verticalAlign=middle;whiteSpace=wrap;rounded=0;" parent="1" vertex="1">
                    <mxGeometry x="173" y="270" width="60" height="30" as="geometry"/>
                </mxCell>
                <mxCell id="em6YGDrc_pUf2AP9gyRK-12" value="" style="aspect=fixed;html=1;points=[];align=center;image;fontSize=12;image=img/lib/azure2/general/Tag.svg;" parent="1" vertex="1">
                    <mxGeometry x="139" y="274" width="18" height="18" as="geometry"/>
                </mxCell>
                <mxCell id="em6YGDrc_pUf2AP9gyRK-13" value="" style="line;strokeWidth=1;fillColor=none;align=left;verticalAlign=middle;spacingTop=-1;spacingLeft=3;spacingRight=3;rotatable=0;labelPosition=right;points=[];portConstraint=eastwest;" parent="1" vertex="1">
                    <mxGeometry x="136.5" y="300" width="147" height="8" as="geometry"/>
                </mxCell>
                <mxCell id="em6YGDrc_pUf2AP9gyRK-15" value="Products" style="text;html=1;strokeColor=none;fillColor=none;align=center;verticalAlign=middle;whiteSpace=wrap;rounded=0;" parent="1" vertex="1">
                    <mxGeometry x="173" y="308" width="60" height="30" as="geometry"/>
                </mxCell>
                <mxCell id="em6YGDrc_pUf2AP9gyRK-16" value="" style="line;strokeWidth=1;fillColor=none;align=left;verticalAlign=middle;spacingTop=-1;spacingLeft=3;spacingRight=3;rotatable=0;labelPosition=right;points=[];portConstraint=eastwest;" parent="1" vertex="1">
                    <mxGeometry x="136.5" y="338" width="147" height="8" as="geometry"/>
                </mxCell>
                <mxCell id="em6YGDrc_pUf2AP9gyRK-17" value="" style="shape=mxgraph.signs.travel.barber_shop;html=1;pointerEvents=1;fillColor=#000000;strokeColor=none;verticalLabelPosition=bottom;verticalAlign=top;align=center;" parent="1" vertex="1">
                    <mxGeometry x="139" y="313" width="23" height="20" as="geometry"/>
                </mxCell>
                <mxCell id="em6YGDrc_pUf2AP9gyRK-18" value="Shops" style="text;html=1;strokeColor=none;fillColor=none;align=center;verticalAlign=middle;whiteSpace=wrap;rounded=0;" parent="1" vertex="1">
                    <mxGeometry x="173" y="346" width="60" height="30" as="geometry"/>
                </mxCell>
                <mxCell id="em6YGDrc_pUf2AP9gyRK-21" value="" style="html=1;verticalLabelPosition=bottom;align=center;labelBackgroundColor=#ffffff;verticalAlign=top;strokeWidth=2;strokeColor=#00080F;shadow=0;dashed=0;shape=mxgraph.ios7.icons.bag;fontSize=18;" parent="1" vertex="1">
                    <mxGeometry x="142" y="351.5" width="21" height="21" as="geometry"/>
                </mxCell>
                <mxCell id="em6YGDrc_pUf2AP9gyRK-22" value="" style="rounded=1;whiteSpace=wrap;html=1;fontSize=18;strokeColor=#00080F;" parent="1" vertex="1">
                    <mxGeometry x="310" y="220" width="450" height="120" as="geometry"/>
                </mxCell>
                <mxCell id="em6YGDrc_pUf2AP9gyRK-23" value="" style="line;strokeWidth=1;fillColor=none;align=left;verticalAlign=middle;spacingTop=-1;spacingLeft=3;spacingRight=3;rotatable=0;labelPosition=right;points=[];portConstraint=eastwest;" parent="1" vertex="1">
                    <mxGeometry x="320" y="250" width="430" height="8" as="geometry"/>
                </mxCell>
                <mxCell id="em6YGDrc_pUf2AP9gyRK-24" value="Add new Product" style="text;html=1;strokeColor=none;fillColor=none;align=center;verticalAlign=middle;whiteSpace=wrap;rounded=0;" parent="1" vertex="1">
                    <mxGeometry x="320" y="224" width="120" height="30" as="geometry"/>
                </mxCell>
                <mxCell id="em6YGDrc_pUf2AP9gyRK-26" value="" style="html=1;verticalLabelPosition=bottom;labelBackgroundColor=#ffffff;verticalAlign=top;shadow=0;dashed=0;strokeWidth=2;shape=mxgraph.ios7.misc.down;strokeColor=#00050A;fontSize=18;" parent="1" vertex="1">
                    <mxGeometry x="730" y="236" width="12" height="6" as="geometry"/>
                </mxCell>
                <mxCell id="em6YGDrc_pUf2AP9gyRK-31" value="Name" style="strokeWidth=1;html=1;shadow=0;dashed=0;shape=mxgraph.ios.iTextInput;strokeColor=#444444;buttonText=;fontSize=8;whiteSpace=wrap;align=left;fillColor=#FFFFFF;fontColor=#000000;" parent="1" vertex="1">
                    <mxGeometry x="334" y="266" width="160" height="15" as="geometry"/>
                </mxCell>
                <mxCell id="em6YGDrc_pUf2AP9gyRK-32" value="+ Add" style="rounded=1;fillColor=#dae8fc;strokeColor=#6c8ebf;html=1;align=center;verticalAlign=middle;fontStyle=0;fontSize=12;sketch=0;fontColor=#000000;" parent="1" vertex="1">
                    <mxGeometry x="684" y="284.5" width="58" height="20" as="geometry"/>
                </mxCell>
                <mxCell id="em6YGDrc_pUf2AP9gyRK-33" value="Characteristics" style="strokeWidth=1;html=1;shadow=0;dashed=0;shape=mxgraph.ios.iTextInput;strokeColor=#444444;buttonText=;fontSize=8;whiteSpace=wrap;align=left;fillColor=#FFFFFF;fontColor=#000000;" parent="1" vertex="1">
                    <mxGeometry x="334" y="287" width="160" height="15" as="geometry"/>
                </mxCell>
                <mxCell id="em6YGDrc_pUf2AP9gyRK-34" value="" style="html=1;shadow=0;dashed=0;shape=mxgraph.bootstrap.rrect;rSize=5;strokeColor=#0F0F0F;html=1;whiteSpace=wrap;fillColor=#FFFFFF;fontColor=#000000;fontSize=18;" parent="1" vertex="1">
                    <mxGeometry x="310" y="351.5" width="450" height="150" as="geometry"/>
                </mxCell>
                <mxCell id="em6YGDrc_pUf2AP9gyRK-35" value="Name Product 1" style="strokeColor=inherit;fillColor=inherit;gradientColor=inherit;fontColor=inherit;html=1;shadow=0;dashed=0;shape=mxgraph.bootstrap.topButton;rSize=5;perimeter=none;whiteSpace=wrap;resizeWidth=1;align=left;spacing=10;fontSize=18;" parent="em6YGDrc_pUf2AP9gyRK-34" vertex="1">
                    <mxGeometry width="450" height="30" relative="1" as="geometry"/>
                </mxCell>
                <mxCell id="em6YGDrc_pUf2AP9gyRK-36" value="Name Product 2" style="strokeColor=inherit;fillColor=inherit;gradientColor=inherit;fontColor=inherit;html=1;shadow=0;dashed=0;perimeter=none;whiteSpace=wrap;resizeWidth=1;align=left;spacing=10;fontSize=18;" parent="em6YGDrc_pUf2AP9gyRK-34" vertex="1">
                    <mxGeometry width="450" height="30" relative="1" as="geometry">
                        <mxPoint y="30" as="offset"/>
                    </mxGeometry>
                </mxCell>
                <mxCell id="em6YGDrc_pUf2AP9gyRK-37" value="Name Product 3" style="strokeColor=inherit;fillColor=inherit;gradientColor=inherit;fontColor=inherit;html=1;shadow=0;dashed=0;perimeter=none;whiteSpace=wrap;resizeWidth=1;align=left;spacing=10;fontSize=18;" parent="em6YGDrc_pUf2AP9gyRK-34" vertex="1">
                    <mxGeometry width="450" height="30" relative="1" as="geometry">
                        <mxPoint y="60" as="offset"/>
                    </mxGeometry>
                </mxCell>
                <mxCell id="em6YGDrc_pUf2AP9gyRK-38" value="Name Product 5" style="strokeColor=inherit;fillColor=inherit;gradientColor=inherit;fontColor=inherit;html=1;shadow=0;dashed=0;perimeter=none;whiteSpace=wrap;resizeWidth=1;align=left;spacing=10;fontSize=18;" parent="em6YGDrc_pUf2AP9gyRK-34" vertex="1">
                    <mxGeometry width="450" height="30" relative="1" as="geometry">
                        <mxPoint y="90" as="offset"/>
                    </mxGeometry>
                </mxCell>
                <mxCell id="em6YGDrc_pUf2AP9gyRK-39" value="Name Product 6" style="strokeColor=inherit;fillColor=inherit;gradientColor=inherit;fontColor=inherit;html=1;shadow=0;dashed=0;shape=mxgraph.bootstrap.bottomButton;rSize=5;perimeter=none;whiteSpace=wrap;resizeWidth=1;resizeHeight=0;align=left;spacing=10;fontSize=18;" parent="em6YGDrc_pUf2AP9gyRK-34" vertex="1">
                    <mxGeometry y="1" width="450" height="30" relative="1" as="geometry">
                        <mxPoint y="-30" as="offset"/>
                    </mxGeometry>
                </mxCell>
                <mxCell id="em6YGDrc_pUf2AP9gyRK-41" value="" style="verticalLabelPosition=bottom;verticalAlign=top;html=1;shadow=0;dashed=0;strokeWidth=1;shape=mxgraph.ios.iDeleteIcon;fillColor=#e8878E;fillColor2=#BD1421;strokeColor=#ffffff;sketch=0;fontSize=18;" parent="em6YGDrc_pUf2AP9gyRK-34" vertex="1">
                    <mxGeometry x="420" y="8.5" width="15" height="15" as="geometry"/>
                </mxCell>
                <mxCell id="em6YGDrc_pUf2AP9gyRK-42" value="" style="verticalLabelPosition=bottom;verticalAlign=top;html=1;shadow=0;dashed=0;strokeWidth=1;shape=mxgraph.ios.iDeleteIcon;fillColor=#e8878E;fillColor2=#BD1421;strokeColor=#ffffff;sketch=0;fontSize=18;" parent="em6YGDrc_pUf2AP9gyRK-34" vertex="1">
                    <mxGeometry x="420" y="38.5" width="15" height="15" as="geometry"/>
                </mxCell>
                <mxCell id="em6YGDrc_pUf2AP9gyRK-43" value="" style="verticalLabelPosition=bottom;verticalAlign=top;html=1;shadow=0;dashed=0;strokeWidth=1;shape=mxgraph.ios.iDeleteIcon;fillColor=#e8878E;fillColor2=#BD1421;strokeColor=#ffffff;sketch=0;fontSize=18;" parent="em6YGDrc_pUf2AP9gyRK-34" vertex="1">
                    <mxGeometry x="420" y="67.5" width="15" height="15" as="geometry"/>
                </mxCell>
                <mxCell id="em6YGDrc_pUf2AP9gyRK-44" value="" style="verticalLabelPosition=bottom;verticalAlign=top;html=1;shadow=0;dashed=0;strokeWidth=1;shape=mxgraph.ios.iDeleteIcon;fillColor=#e8878E;fillColor2=#BD1421;strokeColor=#ffffff;sketch=0;fontSize=18;" parent="em6YGDrc_pUf2AP9gyRK-34" vertex="1">
                    <mxGeometry x="420" y="98.5" width="15" height="15" as="geometry"/>
                </mxCell>
                <mxCell id="em6YGDrc_pUf2AP9gyRK-45" value="" style="verticalLabelPosition=bottom;verticalAlign=top;html=1;shadow=0;dashed=0;strokeWidth=1;shape=mxgraph.ios.iDeleteIcon;fillColor=#e8878E;fillColor2=#BD1421;strokeColor=#ffffff;sketch=0;fontSize=18;" parent="em6YGDrc_pUf2AP9gyRK-34" vertex="1">
                    <mxGeometry x="420" y="128.5" width="15" height="15" as="geometry"/>
                </mxCell>
                <mxCell id="em6YGDrc_pUf2AP9gyRK-46" value="&lt;font style=&quot;font-size: 18px&quot;&gt;BACOFFICE TIENDA MERCADONA&lt;/font&gt;" style="text;html=1;strokeColor=none;fillColor=none;align=left;verticalAlign=middle;whiteSpace=wrap;rounded=0;" parent="1" vertex="1">
                    <mxGeometry x="310" y="166.5" width="440" height="30" as="geometry"/>
                </mxCell>
                <mxCell id="sZM9pxKe4kB0RMcvMGgo-1" value="Description" style="strokeWidth=1;html=1;shadow=0;dashed=0;shape=mxgraph.ios.iTextInput;strokeColor=#444444;buttonText=;fontSize=8;whiteSpace=wrap;align=left;fillColor=#FFFFFF;fontColor=#000000;" parent="1" vertex="1">
                    <mxGeometry x="510" y="262.5" width="164" height="37.5" as="geometry"/>
                </mxCell>
                <mxCell id="sZM9pxKe4kB0RMcvMGgo-2" value="Price" style="strokeWidth=1;html=1;shadow=0;dashed=0;shape=mxgraph.ios.iTextInput;strokeColor=#444444;buttonText=;fontSize=8;whiteSpace=wrap;align=left;fillColor=#FFFFFF;fontColor=#000000;" parent="1" vertex="1">
                    <mxGeometry x="334" y="308" width="160" height="15" as="geometry"/>
                </mxCell>
                <mxCell id="2" value="Categorias" style="strokeWidth=1;html=1;shadow=0;dashed=0;shape=mxgraph.ios.iTextInput;strokeColor=#444444;buttonText=;fontSize=8;whiteSpace=wrap;align=left;fillColor=#FFFFFF;fontColor=#000000;" vertex="1" parent="1">
                    <mxGeometry x="512" y="307" width="160" height="15" as="geometry"/>
                </mxCell>
            </root>
        </mxGraphModel>
    </diagram>
</mxfile>
